<svg height="500" viewBox="0 0 500 500" width="500" xmlns="http://www.w3.org/2000/svg"><g fill="none" fill-rule="evenodd"><circle cx="250" cy="250" fill="#000" r="250"/><path d="m194.541667 167.8375 91.833333 52.925c1.691667.966667 1.691667 3.141667 0 4.108333l-91.833333 52.925c-.725.483334-1.691667.483334-2.416667 0l-91.833333-52.925c-1.691667-.966666-1.691667-3.141666 0-4.108333l91.833333-52.925c.725-.483333 1.691667-.483333 2.416667 0zm-97.8750003-52.441667v106.091667c0 .966667-.4833334 1.691667-1.2083334 2.175l-91.8333333 52.925c-1.69166667.725-3.625-.483333-3.625-2.175v-106.091667c0-.966666.48333333-1.691666 1.20833333-2.175l91.83333337-52.925c1.6916666-.966666 3.625.241667 3.625 2.175zm193.3333333-111.64999967v106.09166667c0 .966667-.483333 1.691667-1.208333 2.175l-91.833334 52.925c-1.691666.966667-3.625-.241667-3.625-2.175v-106.0916667c0-.9666666.483334-1.6916666 1.208334-2.175l91.833333-52.92499997c1.691667-.96666666 3.625.24166667 3.625 2.175zm-192.125-3.38333333 91.833333 52.925c1.691667.9666667 1.691667 3.1416667 0 4.1083333l-91.833333 52.9249997c-.725.483334-1.6916667.483334-2.4166667 0l-91.8333333-52.9249997c-1.69166667-.9666666-1.69166667-3.1416666 0-4.1083333l91.8333333-52.925c.725-.48333333 1.6916667-.48333333 2.4166667 0z" fill="#fefefe" transform="translate(105 111)"/></g></svg>